<svg width="144" height="48" viewBox="0 0 144 48" fill="none" xmlns="http://www.w3.org/2000/svg">
<path d="M132.12 0H11.4C11.04 0 10.56 0 10.08 0C9.72 0 9.36 0 9 0C8.16 0 7.44 0.12 6.6 0.24C5.76 0.36 5.04 0.6 4.32 0.96C3.6 1.32 3 1.8 2.4 2.4C1.8 3 1.32 3.6 0.96 4.32C0.6 5.04 0.36 5.88 0.24 6.6C0.12 7.44 0 8.28 0 9C0 9.36 0 9.72 0 10.08C0 10.56 0 10.92 0 11.4V36.48C0 36.96 0 37.32 0 37.8C0 38.16 0 38.52 0 38.88C0 39.72 0.12 40.44 0.24 41.28C0.36 42.12 0.6 42.84 0.96 43.56C1.32 44.4 1.8 45 2.4 45.6C3 46.2 3.6 46.68 4.32 47.04C5.04 47.4 5.76 47.64 6.6 47.76C7.44 47.88 8.16 48 9 48C9.36 48 9.72 48 10.08 48C10.56 48 10.92 48 11.4 48H132.12C132.6 48 132.96 48 133.44 48C133.8 48 134.16 48 134.52 48C135.36 48 136.08 47.88 136.92 47.76C137.76 47.64 138.48 47.4 139.2 47.04C139.92 46.68 140.52 46.2 141.12 45.6C141.72 45 142.2 44.4 142.56 43.68C142.92 42.96 143.16 42.24 143.28 41.4C143.4 40.56 143.52 39.84 143.52 39C143.52 38.64 143.52 38.28 143.52 37.92C143.52 37.44 143.52 37.08 143.52 36.6V11.4C143.52 10.92 143.52 10.56 143.52 10.08C143.52 9.72 143.52 9.36 143.52 9C143.52 8.16 143.4 7.44 143.28 6.6C143.16 5.76 142.92 5.04 142.56 4.32C142.2 3.6 141.72 3 141.12 2.4C140.52 1.8 139.92 1.32 139.2 0.96C138.48 0.6 137.76 0.36 136.92 0.24C136.08 0.12 135.36 0 134.52 0C134.16 0 133.8 0 133.44 0C133.08 0 132.6 0 132.12 0Z" fill="#B1B3B6"/>
<path d="M10.08 46.92C9.71996 46.92 9.35996 46.92 8.99996 46.92C8.27996 46.92 7.55996 46.92 6.71996 46.68C5.99996 46.56 5.27996 46.32 4.67996 46.08C4.07996 45.72 3.47996 45.36 2.99996 44.88C2.51996 44.4 2.03996 43.8 1.79996 43.2C1.43996 42.6 1.31996 42 1.19996 41.16C1.07996 40.32 0.959961 39.48 0.959961 38.88C0.959961 38.64 0.959961 37.8 0.959961 37.8V10.08C0.959961 10.08 0.959961 9.24 0.959961 9C0.959961 8.4 0.959961 7.56 1.19996 6.72C1.43996 6.12 1.55996 5.4 1.91996 4.8C2.27996 4.2 2.63996 3.6 3.11996 3.12C3.59996 2.64 4.19996 2.28 4.79996 1.92C5.39996 1.56 6.11996 1.44 6.83996 1.32C7.55996 1.08 8.39996 1.08 8.99996 1.08H10.08H133.44H134.52C135.12 1.08 135.96 1.08 136.8 1.32C137.52 1.44 138.12 1.68 138.84 1.92C139.44 2.28 140.04 2.64 140.52 3.12C141 3.6 141.48 4.2 141.72 4.8C142.08 5.4 142.2 6.12 142.32 6.72C142.44 7.44 142.56 8.28 142.56 9C142.56 9.36 142.56 9.72 142.56 10.08C142.56 10.56 142.56 10.92 142.56 11.4V36.48C142.56 36.96 142.56 37.32 142.56 37.8C142.56 38.16 142.56 38.52 142.56 38.88C142.56 39.6 142.44 40.32 142.32 41.16C142.2 41.88 141.96 42.6 141.72 43.2C141.36 43.8 141 44.4 140.52 44.88C140.04 45.36 139.44 45.84 138.84 46.08C138.24 46.44 137.64 46.56 136.8 46.68C136.08 46.8 135.24 46.8 134.52 46.92C134.16 46.92 133.8 46.92 133.44 46.92H132.12H10.08Z" fill="#3D3D3D"/>
<path d="M29.7601 24.36C29.7601 21 32.5201 19.44 32.6401 19.32C31.0801 17.04 28.6801 16.8 27.8401 16.68C25.8001 16.44 23.8801 17.88 22.8001 17.88C21.7201 17.88 20.1601 16.68 18.4801 16.68C16.3201 16.68 14.2801 18 13.0801 19.92C10.8001 23.88 12.4801 29.88 14.7601 33.12C15.8401 34.68 17.1601 36.48 18.8401 36.48C20.5201 36.36 21.1201 35.4 23.1601 35.4C25.2001 35.4 25.6801 36.48 27.4801 36.48C29.2801 36.48 30.3601 34.92 31.4401 33.24C32.7601 31.44 33.2401 29.64 33.2401 29.52C33.2401 29.64 29.7601 28.32 29.7601 24.36Z" fill="white"/>
<path d="M26.4 14.64C27.24 13.56 27.96 12 27.72 10.44C26.4 10.44 24.84 11.28 23.88 12.48C23.04 13.44 22.32 15 22.56 16.56C24 16.56 25.56 15.72 26.4 14.64Z" fill="white"/>
<path d="M45.7199 30.72H50.2799L47.9999 24.12H47.8799L45.7199 30.72ZM50.7599 32.52H45.1199L43.7999 36.6H41.3999L46.7999 21.72H49.1999L54.5999 36.6H52.1999L50.7599 32.52Z" fill="white"/>
<path d="M63.84 31.2C63.84 29.04 62.76 27.6 60.96 27.6C59.28 27.6 58.08 29.04 58.08 31.2C58.08 33.36 59.28 34.8 60.96 34.8C62.76 34.8 63.84 33.36 63.84 31.2ZM66.24 31.2C66.24 34.56 64.44 36.72 61.68 36.72C60.12 36.72 58.92 36 58.32 34.8V40.2H56.04V25.8H58.2V27.6C58.8 26.4 60.12 25.68 61.68 25.68C64.32 25.56 66.24 27.84 66.24 31.2Z" fill="white"/>
<path d="M75.8399 31.2C75.8399 29.04 74.7599 27.6 72.9599 27.6C71.2799 27.6 70.0799 29.04 70.0799 31.2C70.0799 33.36 71.2799 34.8 72.9599 34.8C74.7599 34.8 75.8399 33.36 75.8399 31.2ZM78.1199 31.2C78.1199 34.56 76.3199 36.72 73.5599 36.72C71.9999 36.72 70.7999 36 70.1999 34.8V40.2H67.9199V25.8H70.0799V27.6C70.6799 26.4 71.9999 25.68 73.5599 25.68C76.3199 25.56 78.1199 27.84 78.1199 31.2Z" fill="white"/>
<path d="M86.04 32.4C86.16 33.84 87.6 34.8 89.64 34.8C91.56 34.8 92.88 33.84 92.88 32.52C92.88 31.32 92.04 30.72 90.12 30.24L88.2 29.76C85.44 29.04 84.24 27.84 84.24 25.8C84.24 23.28 86.52 21.48 89.64 21.48C92.76 21.48 94.92 23.28 95.04 25.8H92.76C92.64 24.36 91.44 23.4 89.64 23.4C87.84 23.4 86.64 24.36 86.64 25.68C86.64 26.76 87.48 27.36 89.4 27.84L91.08 28.2C94.08 28.92 95.4 30.12 95.4 32.28C95.4 35.04 93.12 36.84 89.64 36.84C86.28 36.84 84.12 35.16 84 32.4H86.04Z" fill="white"/>
<path d="M99.96 23.16V25.68H102V27.48H99.96V33.48C99.96 34.44 100.32 34.8 101.28 34.8C101.52 34.8 101.88 34.8 102 34.8V36.6C101.76 36.72 101.28 36.72 100.8 36.72C98.64 36.72 97.8 35.88 97.8 33.84V27.6H96.24V25.8H97.8V23.28H99.96V23.16Z" fill="white"/>
<path d="M111.36 31.2C111.36 28.8 110.28 27.48 108.48 27.48C106.68 27.48 105.6 28.8 105.6 31.2C105.6 33.6 106.68 34.92 108.48 34.92C110.28 34.92 111.36 33.48 111.36 31.2ZM103.32 31.2C103.32 27.84 105.36 25.68 108.48 25.68C111.6 25.68 113.64 27.84 113.64 31.2C113.64 34.68 111.6 36.72 108.48 36.72C105.24 36.72 103.32 34.56 103.32 31.2Z" fill="white"/>
<path d="M115.44 25.68H117.6V27.6C117.96 26.4 118.92 25.68 120.24 25.68C120.6 25.68 120.84 25.68 120.96 25.8V27.84C120.84 27.72 120.36 27.72 120 27.72C118.56 27.72 117.72 28.68 117.72 30.24V36.72H115.44V25.68Z" fill="white"/>
<path d="M123.72 30.12H129.12C129.12 28.44 128.04 27.36 126.48 27.36C124.92 27.36 123.84 28.56 123.72 30.12ZM131.28 33.36C131.04 35.28 129 36.72 126.6 36.72C123.48 36.72 121.44 34.56 121.44 31.2C121.44 27.84 123.36 25.56 126.48 25.56C129.48 25.56 131.4 27.6 131.4 30.96V31.68H123.72V31.8C123.72 33.6 124.92 34.92 126.6 34.92C127.8 34.92 128.76 34.32 129.12 33.36H131.28Z" fill="white"/>
<path d="M43.92 16.68H45.24C46.68 16.68 47.64 15.72 47.64 14.16C47.64 12.6 46.8 11.64 45.24 11.64H43.92V16.68ZM45.36 10.44C47.52 10.44 48.72 11.76 48.72 14.04C48.72 16.32 47.52 17.64 45.36 17.64H42.72V10.44H45.36Z" fill="white"/>
<path d="M54 14.88C54 13.68 53.52 13.08 52.56 13.08C51.6 13.08 51.12 13.8 51.12 14.88C51.12 16.08 51.6 16.8 52.56 16.8C53.52 16.8 54 16.08 54 14.88ZM50.04 14.88C50.04 13.08 51 12.12 52.56 12.12C54.12 12.12 55.08 13.2 55.08 14.88C55.08 16.68 54.12 17.64 52.56 17.64C51 17.76 50.04 16.68 50.04 14.88Z" fill="white"/>
<path d="M61.9199 17.64H60.8399L59.6399 13.68L58.4399 17.64H57.3599L55.9199 12.24H56.9999L57.9599 16.32L59.1599 12.24H60.1199L61.1999 16.32H61.3199L62.2799 12.24H63.3599L61.9199 17.64Z" fill="white"/>
<path d="M64.6799 12.24H65.7599V13.08H65.8799C66.1199 12.48 66.7199 12.12 67.4399 12.12C68.6399 12.12 69.3599 12.84 69.3599 14.16V17.64H68.2799V14.4C68.2799 13.56 67.9199 13.08 67.0799 13.08C66.2399 13.08 65.7599 13.56 65.7599 14.4V17.52H64.6799V12.24Z" fill="white"/>
<path d="M70.9199 10.08H71.9999V17.64H70.9199V10.08Z" fill="white"/>
<path d="M77.5199 14.88C77.5199 13.68 77.0399 13.08 76.0799 13.08C75.1199 13.08 74.6399 13.8 74.6399 14.88C74.6399 16.08 75.1199 16.8 76.0799 16.8C76.9199 16.8 77.5199 16.08 77.5199 14.88ZM73.4399 14.88C73.4399 13.08 74.3999 12.12 75.9599 12.12C77.5199 12.12 78.4799 13.2 78.4799 14.88C78.4799 16.68 77.5199 17.64 75.9599 17.64C74.3999 17.76 73.4399 16.68 73.4399 14.88Z" fill="white"/>
<path d="M83.1599 15.6V15.12L81.8399 15.24C81.1199 15.24 80.7599 15.6 80.7599 15.96C80.7599 16.44 81.2399 16.68 81.7199 16.68C82.5599 16.8 83.1599 16.32 83.1599 15.6ZM79.6799 16.08C79.6799 15.12 80.3999 14.52 81.7199 14.52L83.1599 14.4V13.92C83.1599 13.32 82.7999 13.08 82.0799 13.08C81.4799 13.08 81.1199 13.32 80.9999 13.68H79.9199C80.0399 12.72 80.8799 12.12 82.0799 12.12C83.3999 12.12 84.2399 12.84 84.2399 13.92V17.64H83.1599V16.92H83.0399C82.6799 17.52 82.0799 17.76 81.3599 17.76C80.3999 17.76 79.6799 17.04 79.6799 16.08Z" fill="white"/>
<path d="M86.7601 14.88C86.7601 16.08 87.3601 16.68 88.2001 16.68C89.0401 16.68 89.64 15.96 89.64 14.88C89.64 13.8 89.0401 13.08 88.2001 13.08C87.2401 13.08 86.7601 13.8 86.7601 14.88ZM85.5601 14.88C85.5601 13.2 86.4001 12.12 87.84 12.12C88.56 12.12 89.16 12.48 89.52 13.08H89.64V10.08H90.72V17.64H89.64V16.8H89.52C89.16 17.4 88.56 17.76 87.84 17.76C86.5201 17.76 85.5601 16.68 85.5601 14.88Z" fill="white"/>
<path d="M99.12 14.88C99.12 13.68 98.64 13.08 97.68 13.08C96.72 13.08 96.24 13.8 96.24 14.88C96.24 16.08 96.72 16.8 97.68 16.8C98.52 16.8 99.12 16.08 99.12 14.88ZM95.04 14.88C95.04 13.08 96 12.12 97.56 12.12C99.12 12.12 100.08 13.2 100.08 14.88C100.08 16.68 99.12 17.64 97.56 17.64C96 17.76 95.04 16.68 95.04 14.88Z" fill="white"/>
<path d="M101.64 12.24H102.72V13.08H102.84C103.08 12.48 103.68 12.12 104.4 12.12C105.6 12.12 106.32 12.84 106.32 14.16V17.64H105.24V14.4C105.24 13.56 104.88 13.08 104.04 13.08C103.2 13.08 102.72 13.56 102.72 14.4V17.52H101.64V12.24Z" fill="white"/>
<path d="M112.2 10.92V12.24H113.4V13.2H112.2V15.96C112.2 16.56 112.44 16.8 112.92 16.8C113.04 16.8 113.16 16.8 113.28 16.8V17.64C113.16 17.64 112.92 17.64 112.68 17.64C111.48 17.64 111 17.28 111 16.2V13.2H110.16V12.36H111V10.92H112.2Z" fill="white"/>
<path d="M114.84 10.08H115.92V13.08H116.04C116.28 12.48 116.88 12.12 117.72 12.12C118.92 12.12 119.64 12.84 119.64 14.16V17.64H118.56V14.4C118.56 13.56 118.2 13.08 117.36 13.08C116.52 13.08 116.04 13.68 116.04 14.4V17.52H114.96V10.08H114.84Z" fill="white"/>
<path d="M121.92 14.4H124.68C124.68 13.56 124.08 12.96 123.36 12.96C122.52 13.08 122.04 13.56 121.92 14.4ZM125.76 16.2C125.52 17.16 124.68 17.76 123.36 17.76C121.8 17.76 120.84 16.68 120.84 15C120.84 13.32 121.8 12.12 123.36 12.12C124.92 12.12 125.76 13.2 125.76 14.88V15.24H121.92C121.92 16.2 122.52 16.8 123.36 16.8C123.96 16.8 124.44 16.56 124.68 16.2H125.76Z" fill="white"/>
</svg>
